<svg xmlns="http://www.w3.org/2000/svg" viewBox="0.0 0.0 200.0 200.0" height="200px" width="200px"><path fill="#bbbbbb" fill-opacity="1.0"  filling="0" d="M106.0 21.0 L106.0 21.0 L106.0 36.0 L106.0 36.0 L106.0 36.0 L106.0 36.0 L106.0 48.0 L106.0 48.0 L106.0 48.0 L106.0 62.0 L106.0 62.0 L106.0 62.0 L106.0 75.0 L106.0 75.0 L106.0 75.0 L106.0 88.0 L106.0 88.0 L106.0 88.0 L106.0 101.0 L106.0 101.0 L106.0 101.0 L106.0 115.0 L106.0 115.0 L106.0 115.0 L106.0 128.0 L106.0 128.0 L106.0 128.0 L106.0 143.0 L106.0 143.0 L106.0 143.0 L106.0 157.0 L106.0 157.0 L106.0 157.0 L106.0 172.0 L106.0 172.0 L106.0 172.0 L106.0 188.0 L106.0 188.0 L106.0 188.0 L106.0 199.0 L94.0 199.0 L94.0 188.0 L94.0 188.0 L94.0 188.0 L94.0 172.0 L94.0 172.0 L94.0 172.0 L94.0 157.0 L94.0 157.0 L94.0 157.0 L94.0 143.0 L94.0 143.0 L94.0 143.0 L94.0 128.0 L94.0 128.0 L94.0 128.0 L94.0 115.0 L94.0 115.0 L94.0 115.0 L94.0 101.0 L94.0 101.0 L94.0 101.0 L94.0 88.0 L94.0 88.0 L94.0 88.0 L94.0 75.0 L94.0 75.0 L94.0 75.0 L94.0 62.0 L94.0 62.0 L94.0 62.0 L94.0 48.0 L94.0 48.0 L94.0 48.0 L94.0 36.0 L94.0 36.0 L94.0 36.0 L94.0 21.0 L94.0 21.0 L94.0 21.0 L94.0 0.0 L106.0 0.0 L106.0 21.0 L106.0 21.0 L106.0 21.0 Z"></path></svg>